<svg xmlns="http://www.w3.org/2000/svg" width="60" height="60" viewBox="0 0 60 60"><defs><style>.a{fill:#00acf2;}.a,.b{fill-rule:evenodd;}.b{fill:#3f3f3f;}.c,.h{fill:none;}.c{stroke:#ebebeb;stroke-miterlimit:10;stroke-width:2px;}.d{fill:#727171;}.e{fill:#9fa0a0;}.f{fill:#efefef;}.g{stroke:none;}</style></defs><g transform="translate(70.588 2.697)"><path class="a" d="M-9.651,28.469V12.808c0-8.65-5.587-14.26-14.2-14.26h-31.2c-8.614,0-14.2,5.611-14.2,14.26V28.469Z" transform="translate(-1.336 -0.532)"/><path class="b" d="M-69.068,17.3V37.777c0,8.576,5.448,14.138,13.847,14.138H-24.8c8.4,0,13.847-5.562,13.847-14.138V17.3Z" transform="translate(-0.633 4.834)"/><g class="c" transform="translate(-70.588 -2.697)"><rect class="g" width="60" height="60" rx="11.438"/><rect class="h" x="1" y="1" width="58" height="58" rx="10.438"/></g><path class="d" d="M-44.117,22.2V33.047l-9.4,5.424V27.622Z" transform="translate(4.127 6.017)"/><path class="e" d="M-51.681,27.622V38.471l-9.4-5.424V22.2Z" transform="translate(2.299 6.017)"/><path class="f" d="M-42.287,23.257l-9.4,5.424-9.4-5.424,9.4-5.424Z" transform="translate(2.299 4.962)"/><path class="d" d="M-28.941,22.2V33.047l-9.4,5.424V27.622Z" transform="translate(7.796 6.017)"/><path class="e" d="M-36.5,27.622V38.471l-9.4-5.424V22.2Z" transform="translate(5.967 6.017)"/><path class="f" d="M-27.111,23.257l-9.4,5.424-9.4-5.424,9.4-5.424Z" transform="translate(5.967 4.962)"/><path class="d" d="M-36.535,9.093V19.943l-9.4,5.424V14.518Z" transform="translate(5.96 2.85)"/><path class="e" d="M-44.1,14.518V25.367l-9.4-5.424V9.093Z" transform="translate(4.132 2.85)"/><path class="f" d="M-34.7,10.152l-9.4,5.424-9.4-5.424,9.4-5.424Z" transform="translate(4.131 1.795)"/></g></svg>